<?xml version="1.0" encoding="utf-8"?>
<!-- Generator: Adobe Illustrator 16.0.0, SVG Export Plug-In . SVG Version: 6.00 Build 0)  -->
<!DOCTYPE svg PUBLIC "-//W3C//DTD SVG 1.1//EN" "http://www.w3.org/Graphics/SVG/1.1/DTD/svg11.dtd">
<svg version="1.1" id="Layer_1" xmlns="http://www.w3.org/2000/svg" xmlns:xlink="http://www.w3.org/1999/xlink" x="0px" y="0px"
	 width="458px" height="204px" viewBox="0 0 458 204" enable-background="new 0 0 458 204" xml:space="preserve">
<g>
	<g>
		<path d="M34.519,130.395H24.021c-3.936,0-7.125-3.189-7.125-7.125v-11.896v-15.27H3.474c-0.506,0-0.916,0.458-0.916,1.023v30.268
			c0,8.625,6.777,15.647,15.295,16.084c0.277,0.015,0.551,0.041,0.83,0.041h48.502v-13.125H34.519z"/>
	</g>
	<path d="M215.988,114.447h13.312v-10.292c-0.006-0.862-0.701-1.556-1.564-1.556h-15.801v-8.247h-13.756
		c-0.506,0-0.916,0.458-0.916,1.023v52.832c-4.529-2.579-9.828-4.063-15.495-4.063c-16.662,0-30.168,12.814-30.168,28.625
		c0,15.81,13.506,28.625,30.168,28.625c16.499,0,29.896-12.569,30.155-28.166c0.002-0.011,0.016-0.021,0.012-0.029v-33.346
		c0.045-2.394,1.648-4.318,4.055-4.318H229.3v-10.292c-0.006-0.862-0.701-1.556-1.564-1.556h-15.801v-4.922
		C211.979,116.373,213.582,114.447,215.988,114.447z M181.767,188.77c-8.838,0-16-7.162-16-16c0-8.836,7.162-16,16-16
		c8.837,0,15.999,7.164,15.999,16C197.766,181.607,190.604,188.77,181.767,188.77z"/>
	
		<circle fill="none" stroke="#000000" stroke-width="6" stroke-linecap="round" stroke-miterlimit="10" cx="53.116" cy="174.113" r="4.396"/>
	<g>
		<path d="M60.974,152.203v0.021h0.445C61.271,152.214,61.124,152.203,60.974,152.203z"/>
		<path d="M61.147,163.693h-0.174v0.01C61.032,163.703,61.09,163.695,61.147,163.693z"/>
		<path d="M60.493,163.703v-0.01h-0.175C60.377,163.695,60.435,163.703,60.493,163.703z"/>
		<path d="M60.493,152.203c-0.15,0-0.299,0.011-0.445,0.021h0.445V152.203z"/>
		<path d="M44.743,184.302h0.599c-0.197-0.021-0.396-0.03-0.599-0.03V184.302z"/>
		<g>
			<path d="M48,195.084V184h-13.02h-0.338c-3.623,0-4.644-1.557-4.644-5.924v-8.156c0-4.367,1.021-5.92,4.644-5.92h0.338H48v-10.881
				c0-0.467-0.812-1.119-1.316-1.119H34.981h-5c-0.246,0-0.483,0.15-0.727,0.148c-8.033-0.031-12.276,2.605-13.139,7.764
				c-0.101,0.148-0.116,0.382-0.116,0.585v1.537v5.028v13.871v5.027v1.537c0,0.203,0.016,0.379,0.116,0.527
				c0.862,5.158,5.131,7.854,13.167,7.822c0.241-0.002,0.452,0.15,0.698,0.15h5H47.06C47.625,196,48,195.59,48,195.084z"/>
		</g>
		<path d="M59.895,184.302h0.6v-0.03C60.291,184.271,60.092,184.281,59.895,184.302z"/>
		<g>
			<path d="M105.53,122H91v-12.376V94H77.974C77.468,94,77,94.812,77,95.377v55.284c0,0.864-0.643,1.339-1.507,1.339H72.36H58
				v10.787c0,0.49,0.922,1.213,1.464,1.213h4.059h8.838h0.336c3.623,0,4.305,1.553,4.305,5.92v8.156
				c0,4.367-0.682,5.924-4.305,5.924H72.36h-8.838h-3.64c-0.496,0.062-0.883,0.43-0.883,0.891V196h13.359h5
				c0.244,0,0.482-0.152,0.728-0.15c8.033,0.031,12.103-2.606,12.966-7.765c0.102-0.149-0.053-0.383-0.053-0.586v-1.537v-5.028
				v-13.871v-5.027v-1.537c0-0.107,0-0.206,0-0.298v-21.345c0-2.395,2.378-3.854,4.784-3.854H107v-11.757
				C107,122.381,106.394,122,105.53,122z"/>
		</g>
	</g>
	<g>
		<polygon points="140.401,148.271 140.401,148.271 140.392,148.27 		"/>
		<path d="M140.401,92.506l-0.009,0.002L140.401,92.506z"/>
		<polygon points="136.406,93.516 136.406,93.516 136.413,93.514 		"/>
		<path d="M136.406,147.262l0.008,0.002L136.406,147.262z"/>
		<path d="M132.041,145.448l0.012,0.005L132.041,145.448z"/>
		<polygon points="132.041,95.329 132.041,95.329 132.053,95.324 		"/>
		<path d="M157.629,146.43l0.011-0.006L157.629,146.43z"/>
		<polygon points="157.629,94.349 157.629,94.349 157.638,94.353 		"/>
		<polygon points="155.965,93.707 155.965,93.707 155.968,93.708 		"/>
		<path d="M157.244,94.188c-0.022-0.009-0.047-0.017-0.068-0.025C157.198,94.172,157.222,94.18,157.244,94.188L157.244,94.188z"/>
		<path d="M155.965,147.07l0.003-0.002L155.965,147.07z"/>
		<path d="M157.244,146.589L157.244,146.589c-0.028,0.011-0.059,0.021-0.086,0.032C157.187,146.609,157.216,146.602,157.244,146.589
			z"/>
		<path d="M134.383,146.527l0.007,0.004L134.383,146.527z"/>
		<path d="M136.021,93.641l-0.009,0.004L136.021,93.641z"/>
		<polygon points="136.021,147.137 136.021,147.137 136.012,147.133 		"/>
		<polygon points="134.383,94.249 134.383,94.249 134.389,94.247 		"/>
		<path d="M147.1,148.74L147.1,148.74c-0.4,0.016-0.803,0.029-1.208,0.029C146.297,148.77,146.698,148.756,147.1,148.74z"/>
		<path d="M145.569,148.762c0.107,0.002,0.215,0.008,0.322,0.008C145.783,148.77,145.677,148.764,145.569,148.762L145.569,148.762z"
			/>
		<path d="M145.569,92.016L145.569,92.016c0.107-0.001,0.215-0.008,0.322-0.008C145.783,92.008,145.677,92.015,145.569,92.016z"/>
		<path d="M147.1,92.037c-0.4-0.016-0.803-0.029-1.208-0.029C146.297,92.008,146.698,92.021,147.1,92.037L147.1,92.037z"/>
		<polygon points="149.883,92.273 149.883,92.273 149.886,92.273 		"/>
		<path d="M149.883,148.504h0.003H149.883z"/>
		<polygon points="161.877,96.541 161.877,96.541 161.88,96.543 		"/>
		<path d="M161.877,144.236l0.003-0.002L161.877,144.236z"/>
		<path d="M149.499,92.227h-0.002H149.499z"/>
		<polygon points="149.499,148.551 149.499,148.551 149.497,148.551 		"/>
		<polygon points="142.569,92.191 142.569,92.191 142.578,92.19 		"/>
		<path d="M142.569,148.586l0.01,0.001L142.569,148.586z"/>
		<path d="M142.185,148.539L142.185,148.539c-0.008-0.002-0.016-0.002-0.022-0.003C142.169,148.537,142.177,148.538,142.185,148.539
			z"/>
		<path d="M142.185,92.238c-0.008,0.001-0.016,0.002-0.022,0.003C142.169,92.24,142.177,92.24,142.185,92.238L142.185,92.238z"/>
		<path d="M154.156,147.633c0.006-0.002,0.011-0.003,0.017-0.005C154.166,147.63,154.161,147.631,154.156,147.633L154.156,147.633z"
			/>
		<polygon points="130.523,144.617 130.523,144.617 130.509,144.607 		"/>
		<path d="M130.523,96.16l-0.014,0.01L130.523,96.16z"/>
		<path d="M171.336,134.745c-0.019,0.028-0.035,0.06-0.053,0.089C171.301,134.805,171.318,134.773,171.336,134.745z"/>
		<path d="M170.312,136.312L170.312,136.312L170.312,136.312z"/>
		<path d="M170.312,104.464L170.312,104.464L170.312,104.464z"/>
		<path d="M175.291,118.143"/>
		<path d="M116.458,118.575c0.009-0.142,0.021-0.282,0.033-0.425C116.479,118.293,116.468,118.434,116.458,118.575z"/>
		<path d="M117.506,112.667l-0.001,0.003L117.506,112.667z"/>
		<path d="M116.663,116.583c0.01-0.065,0.017-0.134,0.025-0.199C116.68,116.449,116.673,116.518,116.663,116.583z"/>
		<polygon points="117.506,128.109 117.506,128.109 117.505,128.107 		"/>
		<path d="M116.491,122.626c-0.013-0.142-0.024-0.282-0.033-0.424C116.468,122.344,116.479,122.484,116.491,122.626z"/>
		<path d="M116.689,124.395c-0.01-0.065-0.017-0.134-0.025-0.199C116.673,124.261,116.68,124.328,116.689,124.395z"/>
		<path d="M169.017,102.777c0.006,0.008,0.013,0.016,0.02,0.022C169.029,102.793,169.022,102.785,169.017,102.777z"/>
		<path d="M169.928,103.943l-0.004-0.006L169.928,103.943z"/>
		<polygon points="169.928,136.833 169.928,136.833 169.924,136.839 		"/>
		<path d="M169.035,137.977c-0.007,0.008-0.014,0.017-0.02,0.023C169.022,137.992,169.029,137.984,169.035,137.977z"/>
		<polygon points="128.256,143.143 128.256,143.143 128.253,143.139 		"/>
		<path d="M128.256,97.636l-0.003,0.003L128.256,97.636z"/>
		<path d="M126.391,99.103c0.602-0.51-4.445,4.7-4.063,4.215v34.143c-0.382-0.484,4.665,4.725,4.063,4.215V99.103z M125.631,141.006
			c-0.622-0.564-1.22-1.154-1.788-1.771v-37.692c0.568-0.615,1.166-1.205,1.788-1.771V141.006z"/>
		<path d="M169.924,136.839c-0.287,0.386-0.583,0.767-0.889,1.138C169.341,137.604,169.637,137.227,169.924,136.839z"/>
		<path d="M120.205,106.438c0.309-0.523-1.883,3.441-2.699,6.229v15.442c0.817,2.789,3.008,6.755,2.699,6.229V106.438z"/>
		<path d="M157.158,146.621c-0.394,0.156-0.789,0.309-1.19,0.447C156.369,146.93,156.766,146.777,157.158,146.621z"/>
		<path d="M117.505,128.107c-0.354-1.209-0.627-2.447-0.815-3.715C116.876,125.661,117.151,126.898,117.505,128.107z"/>
		<path d="M116.392,120.389c0-0.608,0.026-1.213,0.066-1.812C116.419,119.176,116.392,119.779,116.392,120.389z"/>
		<path d="M136.012,147.133"/>
		<path d="M116.663,124.193c-0.073-0.518-0.128-1.041-0.172-1.567C116.534,123.152,116.591,123.676,116.663,124.193z"/>
		<path d="M116.458,122.202c-0.04-0.601-0.066-1.204-0.066-1.813C116.392,120.998,116.419,121.602,116.458,122.202z"/>
		<path d="M116.689,116.384c0.188-1.267,0.462-2.506,0.815-3.714C117.151,113.878,116.876,115.116,116.689,116.384z"/>
		<path d="M116.491,118.15c0.044-0.526,0.099-1.051,0.172-1.567C116.591,117.102,116.534,117.624,116.491,118.15z"/>
		<path d="M155.58,93.582v53.613c-0.465,0.154-0.204,0.08,0.385-0.125V93.707"/>
		<path d="M155.968,93.708c0.407,0.143,0.809,0.296,1.208,0.455C156.777,94.004,156.375,93.851,155.968,93.708z"/>
		<path d="M157.244,94.188v52.4c0.129-0.052,0.257-0.105,0.385-0.16v-52.08C157.501,94.295,157.373,94.24,157.244,94.188z"/>
		<path d="M144.053,92.068v56.641c-0.495-0.029,0.507,0.042,1.517,0.053V92.016C144.56,92.026,143.558,92.098,144.053,92.068z"/>
		<path d="M149.499,92.227v56.324c0.128-0.015,0.256-0.029,0.384-0.047v-56.23C149.755,92.257,149.627,92.241,149.499,92.227z"/>
		<path d="M147.1,92.037v56.703c0.81-0.031,1.311-0.075,0.76-0.041V92.078"/>
		<path d="M169.928,103.943v32.89c0.128-0.173,0.26-0.344,0.384-0.521v-31.85C170.188,104.288,170.056,104.117,169.928,103.943z"/>
		<path d="M170.312,104.464"/>
		<path d="M157.638,94.353c0.521,0.219,1.034,0.452,1.539,0.698v50.676c-0.504,0.246-1.017,0.479-1.537,0.697
			c1.48-0.619,2.896-1.354,4.237-2.188V96.541C160.534,95.706,159.118,94.972,157.638,94.353z"/>
		<path d="M167.303,139.9c-0.572,0.58-1.167,1.141-1.788,1.673V99.204c0.621,0.532,1.216,1.092,1.788,1.673V139.9z"/>
		<path d="M169.035,102.801c0.306,0.372,0.602,0.752,0.889,1.139C169.637,103.552,169.341,103.173,169.035,102.801z"/>
		<path d="M138.762,92.848c0.537-0.128,1.081-0.239,1.63-0.34c-1.362,0.247-2.688,0.585-3.979,1.006
			c0.522-0.171,1.053-0.328,1.589-0.471v54.691c-0.536-0.144-1.065-0.301-1.589-0.471c1.289,0.42,2.615,0.758,3.979,1.006
			c-0.549-0.102-1.093-0.213-1.63-0.34V92.848z"/>
		<path d="M170.312,136.312"/>
		<path d="M136.012,93.645"/>
		<path d="M136.021,93.641v53.496c0.128,0.043,0.257,0.083,0.385,0.125V93.516C136.278,93.558,136.149,93.598,136.021,93.641z"/>
		<path d="M130.523,96.16v48.457c0.496,0.291,1.003,0.566,1.519,0.831V95.329C131.526,95.593,131.02,95.869,130.523,96.16z"/>
		<path d="M140.785,92.44c0.455-0.077,0.196-0.039-0.385,0.065v55.767c0.581,0.104,0.84,0.143,0.385,0.064V92.44z"/>
		<path d="M172.195,133.232c0.709-1.672,0.842-2.018,1.518-3.399v-18.89c0.524,1.434-1.788-3.912-1.518-3.398V133.232z"/>
		<path d="M140.392,92.508c-0.549,0.101-1.093,0.212-1.63,0.34v55.082c0.537,0.129,1.081,0.239,1.63,0.34
			c0.003,0,0.007,0.002,0.01,0.002V92.506C140.398,92.507,140.395,92.508,140.392,92.508z"/>
		<path d="M138.002,93.043c-0.536,0.143-1.065,0.3-1.589,0.471c-0.002,0.001-0.005,0.001-0.008,0.002v53.746
			c0.003,0.002,0.006,0.002,0.008,0.002c0.522,0.172,1.053,0.328,1.589,0.471V93.043z"/>
		<path d="M133.623,94.58c-0.532,0.234-1.058,0.48-1.57,0.744c-0.004,0.002-0.008,0.003-0.012,0.005v50.119
			c0.004,0.002,0.008,0.003,0.012,0.005c0.514,0.264,1.038,0.51,1.57,0.744V94.58z"/>
		<path d="M159.177,95.051c-0.505-0.246-1.018-0.479-1.539-0.698c-0.003-0.001-0.006-0.003-0.009-0.004v52.081
			c0.004-0.003,0.007-0.004,0.011-0.006c0.521-0.219,1.033-0.451,1.537-0.697V95.051z"/>
		<path d="M157.176,94.163c-0.399-0.159-0.801-0.312-1.208-0.455c-0.001,0-0.002-0.001-0.003-0.001v53.363
			c0.001,0,0.002-0.002,0.003-0.002c0.401-0.141,0.798-0.291,1.19-0.447c0.027-0.012,0.058-0.021,0.086-0.032v-52.4
			C157.222,94.18,157.198,94.172,157.176,94.163z"/>
		<path d="M145.892,92.008c-0.107,0-0.215,0.007-0.322,0.008v56.746c0.107,0.002,0.215,0.008,0.322,0.008
			c0.405,0,0.808-0.014,1.208-0.028V92.037C146.698,92.021,146.297,92.008,145.892,92.008z"/>
		<path d="M151.479,92.523c-0.525-0.098-1.058-0.18-1.594-0.25c-0.001,0-0.002,0-0.003,0v56.23c0.001,0,0.002,0,0.003,0
			c0.536-0.069,1.067-0.151,1.594-0.25V92.523z"/>
		<path d="M130.509,96.17c-0.64,0.377-1.262,0.781-1.868,1.203v46.031c0.606,0.422,1.229,0.826,1.868,1.203
			c0.005,0.002,0.01,0.007,0.015,0.01V96.16C130.519,96.163,130.514,96.167,130.509,96.17z"/>
		<path d="M117.505,112.67c-0.354,1.208-0.627,2.447-0.815,3.714c-0.01,0.065-0.017,0.134-0.025,0.199
			c-0.073,0.519-0.128,1.041-0.172,1.567c-0.013,0.143-0.024,0.283-0.033,0.425c-0.04,0.601-0.066,1.204-0.066,1.813
			c0,0.608,0.026,1.213,0.066,1.812c0.009,0.142,0.021,0.281,0.033,0.424c0.044,0.527,0.099,1.051,0.172,1.568
			c0.01,0.065,0.017,0.134,0.025,0.199c0.188,1.267,0.462,2.506,0.815,3.713c0,0.002,0.001,0.002,0.001,0.004v-15.443
			C117.506,112.668,117.505,112.669,117.505,112.67z"/>
		<path d="M169.924,103.938c-0.287-0.386-0.583-0.766-0.889-1.138c-0.007-0.008-0.014-0.016-0.02-0.022
			c-0.309-0.375-0.627-0.741-0.954-1.101V139.1c0.327-0.357,0.646-0.726,0.954-1.1c0.006-0.008,0.013-0.016,0.02-0.023
			c0.306-0.371,0.602-0.752,0.889-1.138c0.001-0.002,0.003-0.004,0.004-0.006v-32.89
			C169.927,103.941,169.925,103.939,169.924,103.938z"/>
		<path d="M165.515,141.573c0.621-0.532,1.216-1.093,1.788-1.673v-39.023c-0.572-0.581-1.167-1.141-1.788-1.673V141.573z"/>
		<path d="M123.843,139.234c0.568,0.615,1.166,1.205,1.788,1.771V99.771c-0.622,0.565-1.22,1.155-1.788,1.771V139.234z"/>
	</g>
	<g>
		<path d="M336.69,158h-69.814h-3.018H238v12.969c0.141,0.906,0.957,1.031,1.522,1.031h20.596h2.096
			c2.393,0,4.786,2.008,4.786,4.414V199h11.825c0.86,0,1.175-0.977,1.175-1.84V172h16.302c2.393,0,4.698,2.008,4.698,4.414V199
			h11.912c0.861,0,1.088-0.977,1.088-1.84V172h24v-13.396C338,158.098,337.257,158,336.69,158z"/>
	</g>
	<g>
		<path d="M290,91.102c-16.489,0-29.858,12.705-29.858,28.38c0,15.675,13.369,28.382,29.858,28.382
			c16.488,0,29.857-12.707,29.857-28.382C319.858,103.807,306.489,91.102,290,91.102z M290,135.934
			c-9.559,0-17.308-7.367-17.308-16.451c0-9.086,7.749-16.45,17.308-16.45c9.558,0,17.307,7.364,17.307,16.45
			C307.307,128.566,299.558,135.934,290,135.934z"/>
	</g>
	<g>
		<path d="M453.98,94H441v20h-15.576c-0.863,0-1.424,0.283-1.424,1.145V125h13.17c2.405,0,3.976,2.271,3.83,4.5
			c0,0,0,11.95,0,14.345v-1.126v1.126v3.632c0,0.565,0.635,1.523,1.141,1.523H455v-6.531V95.367C455,94.801,454.486,94,453.98,94z"
			/>
	</g>
	<path d="M409.853,157H398v7H384.19c-0.564,0-1.189-0.036-1.189,0.47V175h15v2.184c0,3.935,0.519,8.771-3.065,8.771L387.2,186
		c-3.936,0-3.2-4.883-3.2-8.816v-11.896V157h-12.026c-0.506,0-0.974,0.475-0.974,1.04v31.829c2.166,6.215,6.807,6.869,15.323,7.305
		c0.277,0.016,9.988,0.016,10.267,0c8.518-0.436,12.744-1.59,14.41-8.049V158.04C411,157.475,410.358,157,409.853,157z"/>
	<g>
		<path fill="#EE3A25" d="M379.651,92.007c-16.489,0-29.858,12.705-29.858,28.38c0,15.674,13.369,28.381,29.858,28.381
			s29.858-12.707,29.858-28.381C409.509,104.712,396.14,92.007,379.651,92.007z"/>
	</g>
</g>
<g>
	<path fill="#231F20" d="M29.958,50.534v5.642H7.656V8.01H29.32v5.643H13.518v12.729h14.209v5.504H13.518v18.647L29.958,50.534
		L29.958,50.534z"/>
	<path fill="#231F20" d="M57.42,56.176v-19.61c0-2.522-0.701-4.518-2.104-5.986c-1.4-1.468-3.058-2.202-4.97-2.202
		c-1.955,0-3.6,0.746-4.938,2.236c-1.339,1.491-2.008,3.361-2.008,5.608v19.954h-5.479V23.974h5.479v2.89
		c2.294-2.477,5.056-3.716,8.283-3.716c3.102,0,5.745,1.113,7.934,3.337c2.188,2.226,3.28,5.104,3.28,8.635v21.055L57.42,56.176
		L57.42,56.176z"/>
	<path fill="#231F20" d="M59.777,71.245l4.015-3.509c0.935,1.743,2.315,2.615,4.142,2.615c3.145,0,4.715-2.661,4.715-7.981V23.974
		h5.48v38.464c0,4.173-0.86,7.407-2.581,9.702c-1.721,2.293-4.259,3.44-7.615,3.44C64.535,75.58,61.816,74.135,59.777,71.245z
		 M72.584,14.479c-0.724-0.826-1.083-1.812-1.083-2.959c0-1.146,0.372-2.121,1.115-2.924c0.742-0.802,1.646-1.204,2.708-1.204
		c1.062,0,1.964,0.402,2.708,1.204c0.742,0.803,1.114,1.778,1.114,2.924c0,1.147-0.373,2.123-1.114,2.924
		c-0.744,0.803-1.646,1.204-2.708,1.204C74.262,15.648,73.349,15.259,72.584,14.479z"/>
	<path fill="#231F20" d="M90.488,52.116c-3.144-3.303-4.715-7.316-4.715-12.042c0-4.724,1.582-8.727,4.747-12.007
		c3.164-3.279,6.956-4.92,11.374-4.92c4.417,0,8.208,1.641,11.374,4.92c3.164,3.28,4.747,7.283,4.747,12.007
		c0,4.725-1.583,8.728-4.747,12.007c-3.165,3.28-6.956,4.92-11.374,4.92S93.674,55.374,90.488,52.116z M94.312,31.818
		c-2.039,2.248-3.059,5-3.059,8.257c0,3.258,1.029,6.021,3.09,8.292c2.06,2.271,4.577,3.406,7.551,3.406s5.49-1.135,7.55-3.406
		c2.061-2.271,3.091-5.034,3.091-8.292c0-3.256-1.03-6.021-3.091-8.291c-2.061-2.271-4.577-3.406-7.55-3.406
		C98.92,28.377,96.392,29.525,94.312,31.818z"/>
	<path fill="#231F20" d="M131.269,76.405l-5.226-2.339l7.2-18.991l-11.088-30.069l5.227-1.858l8.602,24.633l9.366-24.633
		l5.161,1.858L131.269,76.405z"/>
	<path fill="#231F20" d="M172.812,29.203v-5.229h4.972v-9.083h5.479v9.083h7.582v5.229h-7.582v26.973h-5.479V29.203H172.812z"/>
	<path fill="#231F20" d="M216.395,56.176v-19.61c0-2.522-0.7-4.518-2.103-5.986c-1.401-1.468-3.06-2.202-4.971-2.202
		c-1.953,0-3.601,0.746-4.938,2.236c-1.338,1.491-2.007,3.361-2.007,5.608v19.954h-5.479V4.57h5.479v22.293
		c2.294-2.477,5.055-3.716,8.283-3.716c3.101,0,5.744,1.113,7.933,3.337c2.188,2.226,3.282,5.104,3.282,8.635v21.055h-5.48V56.176z"
		/>
	<path fill="#231F20" d="M260.424,41.864h-25.615c0.382,3.027,1.593,5.436,3.632,7.225s4.375,2.684,7.01,2.684
		c3.907,0,6.944-1.72,9.111-5.161l4.27,3.166c-3.398,4.816-7.859,7.225-13.381,7.225c-4.631,0-8.496-1.571-11.598-4.713
		c-3.101-3.142-4.65-7.213-4.65-12.213c0-4.679,1.539-8.669,4.619-11.972c3.079-3.303,6.765-4.955,11.056-4.955
		c4.333,0,8.018,1.595,11.056,4.782c3.036,3.189,4.576,7.237,4.619,12.145C260.551,40.947,260.508,41.543,260.424,41.864z
		 M244.876,28.377c-2.082,0-4.068,0.734-5.958,2.202c-1.892,1.468-3.176,3.486-3.854,6.055h19.625
		c-0.595-2.522-1.784-4.529-3.567-6.021C249.336,29.124,247.255,28.377,244.876,28.377z"/>
	<path fill="#231F20" d="M308.529,57.001c-6.287,0-11.683-2.408-16.185-7.225c-4.504-4.817-6.755-10.71-6.755-17.684
		c0-7.019,2.283-12.924,6.851-17.718c4.565-4.792,10.057-7.19,16.471-7.19c3.737,0,7.242,0.884,10.515,2.649
		c3.271,1.766,5.988,4.187,8.155,7.259l-4.523,3.646c-1.615-2.431-3.664-4.357-6.148-5.78c-2.484-1.421-5.15-2.133-7.997-2.133
		c-4.801,0-8.909,1.858-12.328,5.573c-3.42,3.716-5.13,8.281-5.13,13.693c0,5.367,1.678,9.92,5.033,13.658
		c3.354,3.739,7.369,5.608,12.043,5.608c4.205,0,7.604-1.284,10.194-3.854c2.591-2.568,4.163-5.917,4.716-10.046h-12.043v-5.642
		h18.351v1.996c0,6.88-2.028,12.466-6.085,16.754C319.604,54.858,314.561,57.001,308.529,57.001z"/>
	<path fill="#231F20" d="M362.626,28.653v-4.679h5.479v32.202h-5.479v-4.679c-2.721,3.67-6.542,5.504-11.471,5.504
		c-4.333,0-8.027-1.628-11.087-4.885c-3.059-3.257-4.588-7.27-4.588-12.042c0-4.77,1.529-8.784,4.588-12.041
		c3.06-3.257,6.754-4.886,11.087-4.886C356.04,23.148,359.864,24.983,362.626,28.653z M344.147,31.818
		c-2.125,2.248-3.187,5-3.187,8.257c0,3.258,1.062,6.021,3.187,8.292c2.123,2.271,4.672,3.406,7.646,3.406
		c2.973,0,5.521-1.135,7.646-3.406s3.188-5.034,3.188-8.292c0-3.256-1.062-6.021-3.188-8.291c-2.124-2.271-4.673-3.406-7.646-3.406
		C348.819,28.377,346.271,29.525,344.147,31.818z"/>
	<path fill="#231F20" d="M383.143,51.497V75.58h-5.479V23.974h5.479v4.679c2.718-3.669,6.541-5.505,11.469-5.505
		c4.333,0,8.029,1.629,11.088,4.886c3.06,3.257,4.587,7.271,4.587,12.041c0,4.771-1.527,8.785-4.587,12.042
		c-3.059,3.257-6.755,4.885-11.088,4.885C389.727,57.001,385.903,55.167,383.143,51.497z M401.62,48.4
		c2.123-2.293,3.187-5.068,3.187-8.326c0-3.256-1.062-6.021-3.187-8.291c-2.125-2.271-4.674-3.406-7.646-3.406
		c-2.974,0-5.522,1.135-7.646,3.406s-3.186,5.035-3.186,8.291c0,3.258,1.062,6.021,3.186,8.292c2.124,2.271,4.674,3.406,7.646,3.406
		C396.947,51.772,399.495,50.648,401.62,48.4z"/>
	<path fill="#231F20" d="M405.571,71.245l4.015-3.509c0.935,1.743,2.314,2.615,4.142,2.615c3.144,0,4.716-2.661,4.716-7.981V23.974
		h5.479v38.464c0,4.173-0.86,7.407-2.581,9.702c-1.721,2.293-4.259,3.44-7.614,3.44C410.328,75.58,407.609,74.135,405.571,71.245z
		 M418.378,14.479c-0.724-0.826-1.083-1.812-1.083-2.959c0-1.146,0.37-2.121,1.114-2.924c0.742-0.802,1.646-1.204,2.708-1.204
		c1.062,0,1.964,0.402,2.708,1.204c0.743,0.803,1.115,1.778,1.115,2.924c0,1.147-0.372,2.123-1.115,2.924
		c-0.744,0.803-1.646,1.204-2.708,1.204C420.056,15.648,419.143,15.259,418.378,14.479z"/>
	<path fill="#231F20" d="M433.798,14.479c-0.724-0.826-1.083-1.812-1.083-2.959c0-1.146,0.371-2.121,1.113-2.924
		c0.743-0.802,1.646-1.204,2.708-1.204c1.062,0,1.966,0.402,2.709,1.204c0.742,0.803,1.114,1.778,1.114,2.924
		c0,1.147-0.372,2.123-1.114,2.924c-0.743,0.803-1.646,1.204-2.709,1.204C435.475,15.648,434.562,15.259,433.798,14.479z
		 M439.277,23.974v32.202h-5.479V23.974H439.277z"/>
	<path fill="#231F20" d="M454.95,4.57v51.605h-5.479V4.57H454.95z"/>
</g>
<g>
	<path d="M418.915,195H430v-19.02v-0.338c0-3.623,1.557-7.644,5.924-7.644h1.155c4.367,0,5.921,4.021,5.921,7.644v0.338V195h10.881
		c0.467,0,1.119-0.812,1.119-1.316v-17.701v-5c0-0.246-0.179-2.238-0.188-2.48c-0.229-5.334-3.566-10.521-8.724-11.386
		c-0.149-0.101-4.383-0.115-4.585-0.115h-13.002c-0.203,0-1.181-0.034-1.329,0.065c-5.157,0.863-9.172,6.852-9,11.929
		c0.008,0.241-0.172,1.741-0.172,1.987v5v18.078C418,194.625,418.409,195,418.915,195z"/>
</g>
</svg>
