<?xml version="1.0" encoding="utf-8"?>
<!-- Generator: Adobe Illustrator 22.0.1, SVG Export Plug-In . SVG Version: 6.00 Build 0)  -->
<svg version="1.1" id="Layer_1" xmlns="http://www.w3.org/2000/svg" xmlns:xlink="http://www.w3.org/1999/xlink" x="0px" y="0px"
	 viewBox="0 0 67.1 21.2" style="enable-background:new 0 0 67.1 21.2;" xml:space="preserve">
<style type="text/css">
	.st0{fill:#60D9EF;}
</style>
<path d="M14.2,15.5V9.4h-1.4v6.2c0,1,0,2.6-0.8,3.4c-0.3,0.3-0.8,0.5-1.4,0.5c-0.6,0-1.1-0.2-1.4-0.5c-0.8-0.8-0.8-2.5-0.8-3.5v-0.3
	v-3.3c0-1.2,0-3.2-1.2-4.4C6.6,6.8,5.8,6.5,4.8,6.5c-1,0-1.8,0.3-2.4,0.9c-1.2,1.2-1.2,3.2-1.2,4.4V18h1.4v-6.2c0-1,0-2.6,0.7-3.4
	c0.3-0.3,0.8-0.5,1.4-0.5c0.6,0,1.1,0.2,1.4,0.5C7,9.2,7,10.9,7,11.8v3.3v0.3c0,1.2,0,3.3,1.2,4.6c0.6,0.6,1.4,0.9,2.4,0.9
	c1,0,1.8-0.3,2.4-0.9C14.2,18.8,14.2,16.8,14.2,15.5z"/>
<polygon class="st0" points="16.6,2.9 16.2,1.5 14.2,2.2 14.2,0.7 12.8,0.7 12.8,2.2 10.8,1.5 10.4,2.9 12.3,3.6 11.1,5.2 12.3,6.1 
	13.5,4.4 14.7,6.1 15.9,5.2 14.7,3.6 "/>
<g>
	<path d="M18.5,9.5c-1.2,0-2.2-1-2.2-2.2s1-2.2,2.2-2.2s2.2,1,2.2,2.2C20.7,8.5,19.7,9.5,18.5,9.5z M18.5,6.6
		c-0.4,0-0.7,0.3-0.7,0.7c0,0.4,0.3,0.7,0.7,0.7s0.7-0.3,0.7-0.7C19.2,6.9,18.9,6.6,18.5,6.6z"/>
</g>
<g>
	<path d="M28.3,5.7c-1.1,0.2-2.1,0.3-3,0.3h-0.6V3h0.9v2.2c0.8,0,1.6-0.1,2.5-0.2L28.3,5.7z M30,8.6v0.7h-4.5V7.5h3.4V7.1h-3.4V6.4
		h4.4v1.8h-3.4v0.4L30,8.6L30,8.6z M28.9,4.4h-1.6V3.7h1.6V2.7h1v3.4h-1L28.9,4.4L28.9,4.4z"/>
	<path d="M33,4.7c0,1,0.3,2,1.3,2.5L33.8,8c-0.6-0.3-1-0.8-1.2-1.5c-0.2,0.7-0.6,1.3-1.2,1.6l-0.5-0.7c0.9-0.6,1.3-1.6,1.3-2.7V4.6
		H31V3.9h1.1V3H33v0.9h1.1v0.8H33L33,4.7L33,4.7z M36.7,2.7v6.7h-0.9V6.1h-0.5v3h-0.9V2.8h0.9v2.4h0.5V2.7L36.7,2.7L36.7,2.7
		L36.7,2.7z"/>
	<path d="M41.1,6.5v0.6h1.8v2.3h-4.6V7.1h1.8V6.5h-2.5V5.7h6v0.8L41.1,6.5L41.1,6.5z M38.2,4.1c0-0.8,0.9-1.3,2.4-1.3S43,3.3,43,4.1
		c0,0.8-0.9,1.3-2.4,1.3C39.1,5.4,38.2,4.9,38.2,4.1z M39.2,4.1c0,0.4,0.5,0.6,1.4,0.6c0.9,0,1.4-0.2,1.4-0.6c0-0.4-0.5-0.6-1.4-0.6
		C39.7,3.6,39.2,3.7,39.2,4.1z M41.9,7.8h-2.7v0.8h2.7V7.8z"/>
</g>
<g>
	<g>
		<path d="M28.5,15.5v3.4h-0.9v-3.4c0-0.5-0.1-0.8-0.3-1.1c-0.2-0.2-0.4-0.3-0.8-0.3c-0.4,0-0.7,0.2-1,0.5c-0.2,0.3-0.3,0.7-0.3,1.3
			v3.1h-0.9v-5.4h0.9c0,0,0.4,0.3,0.6,0.1c0.3-0.2,0.6-0.2,1-0.2c0.6,0,1,0.2,1.2,0.5C28.3,14.2,28.5,14.8,28.5,15.5z"/>
		<path d="M28.6,19h-1.1v-3.5c0-0.5-0.1-0.8-0.2-1c-0.2-0.2-0.4-0.3-0.7-0.3c-0.4,0-0.7,0.1-0.9,0.4c-0.2,0.3-0.3,0.7-0.3,1.2V19
			h-1.1v-5.7h1l0,0c0,0,0.2,0.1,0.4,0.1c0.1,0,0.1,0,0.1,0c0.3-0.2,0.6-0.3,1-0.3c0.6,0,1,0.2,1.3,0.6c0.3,0.4,0.4,1,0.4,1.7
			L28.6,19L28.6,19L28.6,19z M27.7,18.8h0.7v-3.3c0-0.7-0.1-1.2-0.4-1.6c-0.3-0.3-0.6-0.5-1.2-0.5c-0.3,0-0.7,0.1-0.9,0.2
			c-0.1,0-0.2,0.1-0.3,0.1c-0.2,0-0.4-0.1-0.5-0.2h-0.8v5.2h0.7v-3c0-0.6,0.1-1,0.4-1.3c0.2-0.3,0.6-0.5,1.1-0.5
			c0.4,0,0.7,0.1,0.9,0.4c0.2,0.2,0.3,0.6,0.3,1.1L27.7,18.8L27.7,18.8z"/>
	</g>
	<g>
		<path d="M30.3,16.8v-3.4h0.9v3.4c0,0.5,0.1,0.8,0.3,1.1c0.2,0.2,0.4,0.3,0.8,0.3c0.4,0,0.7-0.2,1-0.4c0.2-0.3,0.3-0.7,0.3-1.3
			v-3.1h0.9v5.4h-0.9c0,0-0.4-0.3-0.6-0.1c-0.3,0.2-0.6,0.2-1,0.2c-0.6,0-1-0.2-1.2-0.5C30.4,18.1,30.3,17.6,30.3,16.8z"/>
		<path d="M31.9,19.1c-0.6,0-1-0.2-1.3-0.6c-0.3-0.4-0.4-1-0.4-1.7v-3.5h1.1v3.5c0,0.5,0.1,0.8,0.2,1c0.2,0.2,0.4,0.3,0.7,0.3
			c0.4,0,0.7-0.1,0.9-0.4c0.2-0.3,0.3-0.7,0.3-1.2v-3.2h1.1V19h-1l0,0c0,0-0.2-0.1-0.4-0.1c-0.1,0-0.1,0-0.1,0
			C32.7,19,32.3,19.1,31.9,19.1z M30.4,13.5v3.3c0,0.7,0.1,1.2,0.4,1.6c0.3,0.3,0.6,0.5,1.2,0.5c0.4,0,0.6-0.1,0.9-0.2
			c0.1,0,0.2-0.1,0.3-0.1c0.2,0,0.4,0.1,0.5,0.2h0.8v-5.2h-0.7v3c0,0.6-0.1,1-0.4,1.3c-0.2,0.3-0.6,0.5-1.1,0.5
			c-0.4,0-0.7-0.1-0.9-0.4c-0.2-0.2-0.3-0.6-0.3-1.1v-3.3L30.4,13.5C30.4,13.5,30.4,13.5,30.4,13.5z"/>
	</g>
	<g>
		<path d="M49.3,11.3v0.7h-1c-0.3,0-0.5,0.1-0.7,0.2c-0.1,0.1-0.2,0.4-0.2,0.7v0.5h1.9v0.7h-1.9v4.7h-0.9v-4.7h-1.5v-0.7h1.5v-0.4
			c0-0.6,0.1-1,0.4-1.3c0.3-0.3,0.7-0.4,1.3-0.4L49.3,11.3L49.3,11.3L49.3,11.3z"/>
		<path d="M47.5,19h-1.1v-4.7H45v-0.9h1.5v-0.3c0-0.6,0.2-1.1,0.4-1.4c0.3-0.3,0.8-0.5,1.4-0.5h1.2v1h-1.1c-0.3,0-0.5,0.1-0.6,0.2
			c-0.1,0.1-0.2,0.3-0.2,0.6v0.4h1.9v0.9h-1.9L47.5,19C47.5,19,47.5,19,47.5,19z M46.6,18.8h0.7V14h1.9v-0.5h-1.9V13
			c0-0.4,0.1-0.6,0.2-0.8c0.1-0.1,0.4-0.2,0.7-0.2h0.9v-0.5h-1c-0.5,0-1,0.1-1.2,0.4c-0.2,0.3-0.4,0.7-0.4,1.2v0.5h-1.5V14h1.5
			L46.6,18.8L46.6,18.8z"/>
	</g>
	<g>
		<path d="M51.1,16.8v-3.4h0.9v3.4c0,0.5,0.1,0.8,0.3,1.1c0.2,0.2,0.4,0.3,0.8,0.3c0.4,0,0.7-0.2,1-0.4c0.2-0.3,0.3-0.7,0.3-1.3
			v-3.1h0.9v5.4h-0.9c0,0-0.4-0.3-0.6-0.1c-0.3,0.2-0.6,0.2-1,0.2c-0.6,0-1-0.2-1.2-0.5C51.2,18.1,51.1,17.6,51.1,16.8z"/>
		<path d="M52.7,19.1c-0.6,0-1-0.2-1.3-0.6c-0.3-0.4-0.4-1-0.4-1.7v-3.5h1.1v3.5c0,0.5,0.1,0.8,0.2,1c0.2,0.2,0.4,0.3,0.7,0.3
			c0.4,0,0.7-0.1,0.9-0.4c0.2-0.3,0.3-0.7,0.3-1.2v-3.2h1.1V19h-1l0,0c0,0-0.2-0.1-0.4-0.1c-0.1,0-0.1,0-0.2,0
			C53.4,19,53.1,19.1,52.7,19.1z M51.2,13.5v3.3c0,0.7,0.1,1.2,0.4,1.6c0.3,0.3,0.6,0.5,1.2,0.5c0.3,0,0.6-0.1,0.9-0.2
			c0.1,0,0.2-0.1,0.3-0.1c0.2,0,0.4,0.1,0.5,0.2h0.8v-5.2h-0.7v3c0,0.6-0.1,1-0.4,1.3c-0.2,0.3-0.6,0.5-1.1,0.5
			c-0.4,0-0.7-0.1-0.9-0.4c-0.2-0.2-0.3-0.6-0.3-1.1v-3.3L51.2,13.5L51.2,13.5z"/>
	</g>
	<g>
		<path d="M63.2,16.9c0,0.4,0.1,0.7,0.2,0.9c0.2,0.2,0.4,0.3,0.7,0.3h1v0.8H64c-0.5,0-0.9-0.2-1.2-0.5c-0.3-0.3-0.4-0.8-0.4-1.5V12
			h-1.4v-0.7h1.9l0.4,0.5L63.2,16.9L63.2,16.9L63.2,16.9z"/>
		<path d="M65.2,19H64c-0.6,0-1-0.2-1.3-0.6c-0.3-0.4-0.5-0.9-0.5-1.5v-4.8h-1.4v-0.9h2l0.5,0.5v5.2c0,0.4,0.1,0.7,0.2,0.8
			c0.1,0.2,0.3,0.3,0.6,0.3h1.2L65.2,19L65.2,19L65.2,19L65.2,19z M60.9,11.8h1.4v5.1c0,0.6,0.1,1.1,0.4,1.4
			c0.3,0.3,0.7,0.5,1.2,0.5h1v-0.5H64c-0.3,0-0.6-0.1-0.7-0.4c-0.2-0.2-0.2-0.5-0.2-1v-5.1l-0.4-0.4h-1.7L60.9,11.8L60.9,11.8z"/>
	</g>
	<g>
		<path d="M58.9,16.9c0,0.4,0.1,0.7,0.2,0.9c0.2,0.2,0.4,0.3,0.7,0.3h1v0.8h-1.1c-0.5,0-0.9-0.2-1.2-0.5C58.2,18,58,17.5,58,16.9V12
			h-1.4v-0.7h1.9l0.4,0.5L58.9,16.9L58.9,16.9L58.9,16.9L58.9,16.9z"/>
		<path d="M60.9,19h-1.2c-0.6,0-1-0.2-1.3-0.6c-0.3-0.4-0.5-0.9-0.5-1.5v-4.8h-1.4v-0.9h2l0.5,0.5v5.2c0,0.4,0.1,0.7,0.2,0.8
			c0.1,0.2,0.3,0.3,0.6,0.3H61L60.9,19L60.9,19L60.9,19L60.9,19z M56.7,11.8h1.4v5.1c0,0.6,0.1,1.1,0.4,1.4c0.3,0.3,0.7,0.5,1.2,0.5
			h1v-0.5h-0.9c-0.3,0-0.6-0.1-0.7-0.4c-0.2-0.2-0.2-0.5-0.2-1v-5.1l-0.4-0.4h-1.7L56.7,11.8L56.7,11.8z"/>
	</g>
	<g>
		<path d="M42.5,16.9c0,0.4,0.1,0.7,0.2,0.9c0.2,0.2,0.4,0.3,0.7,0.3h1v0.8h-1.1c-0.5,0-0.9-0.2-1.2-0.5s-0.4-0.8-0.4-1.5V12h-1.4
			v-0.7h1.9l0.4,0.5L42.5,16.9L42.5,16.9z"/>
		<path d="M44.5,19h-1.2c-0.6,0-1-0.2-1.3-0.6c-0.3-0.4-0.5-0.9-0.5-1.5v-4.8h-1.4v-0.9h2l0.5,0.5v5.2c0,0.4,0.1,0.7,0.2,0.8
			c0.1,0.2,0.3,0.3,0.6,0.3h1.1L44.5,19L44.5,19L44.5,19L44.5,19z M40.3,11.8h1.4v5.1c0,0.6,0.1,1.1,0.4,1.4
			c0.3,0.3,0.6,0.5,1.2,0.5h1v-0.5h-0.9c-0.3,0-0.6-0.1-0.7-0.4c-0.2-0.2-0.2-0.5-0.2-1v-5.1L42,11.4h-1.7L40.3,11.8L40.3,11.8z"/>
	</g>
	<g>
		<path d="M38.3,16.9c0,0.4,0.1,0.7,0.2,0.9c0.1,0.2,0.4,0.3,0.7,0.3h1v0.8H39c-0.5,0-0.9-0.2-1.2-0.5c-0.3-0.3-0.4-0.8-0.4-1.5V12
			h-1.4v-0.7h1.9l0.4,0.5L38.3,16.9L38.3,16.9z"/>
		<path d="M40.3,19H39c-0.6,0-1-0.2-1.3-0.6c-0.3-0.4-0.5-0.9-0.5-1.5v-4.8h-1.4v-0.9h2l0.5,0.5v5.2c0,0.4,0.1,0.7,0.2,0.8
			c0.1,0.2,0.3,0.3,0.6,0.3h1.2L40.3,19L40.3,19L40.3,19L40.3,19z M36,11.8h1.4v5.1c0,0.6,0.1,1.1,0.4,1.4c0.3,0.3,0.7,0.5,1.2,0.5
			h1v-0.5h-0.9c-0.3,0-0.6-0.1-0.7-0.4c-0.2-0.2-0.2-0.5-0.2-1v-5.1l-0.4-0.4H36L36,11.8L36,11.8z"/>
	</g>
</g>
</svg>
